<svg width="14" height="16" viewBox="0 0 14 16" fill="none" xmlns="http://www.w3.org/2000/svg">
<path d="M7.00171 4.8125C6.40497 4.8125 5.83268 5.04955 5.41072 5.47151C4.98876 5.89347 4.75171 6.46576 4.75171 7.0625C4.75171 7.65924 4.98876 8.23153 5.41072 8.65349C5.83268 9.07545 6.40497 9.3125 7.00171 9.3125C7.59845 9.3125 8.17074 9.07545 8.5927 8.65349C9.01466 8.23153 9.25171 7.65924 9.25171 7.0625C9.25171 6.46576 9.01466 5.89347 8.5927 5.47151C8.17074 5.04955 7.59845 4.8125 7.00171 4.8125ZM5.68921 7.0625C5.68921 6.7144 5.82749 6.38056 6.07363 6.13442C6.31977 5.88828 6.65361 5.75 7.00171 5.75C7.34981 5.75 7.68365 5.88828 7.92979 6.13442C8.17593 6.38056 8.31421 6.7144 8.31421 7.0625C8.31421 7.4106 8.17593 7.74444 7.92979 7.99058C7.68365 8.23672 7.34981 8.375 7.00171 8.375C6.65361 8.375 6.31977 8.23672 6.07363 7.99058C5.82749 7.74444 5.68921 7.4106 5.68921 7.0625Z" fill="#A0A4A8"/>
<path d="M11.875 11L8.09201 15.0162C7.95177 15.1652 7.78255 15.2838 7.59476 15.3649C7.40697 15.446 7.20457 15.4879 7.00001 15.4879C6.79545 15.4879 6.59305 15.446 6.40526 15.3649C6.21747 15.2838 6.04825 15.1652 5.90801 15.0162L2.12501 11H2.13926L2.13288 10.9925L2.12501 10.9831C1.15402 9.83475 0.622429 8.37885 0.625009 6.875C0.625009 3.35413 3.47913 0.5 7.00001 0.5C10.5209 0.5 13.375 3.35413 13.375 6.875C13.3776 8.37885 12.846 9.83475 11.875 10.9831L11.8671 10.9925L11.8608 11H11.875ZM11.1464 10.3929C11.9819 9.4114 12.4398 8.16396 12.4375 6.875C12.4375 3.872 10.003 1.4375 7.00001 1.4375C3.99701 1.4375 1.56251 3.872 1.56251 6.875C1.56251 8.2175 2.04776 9.4445 2.85363 10.3929L2.96913 10.529L6.59051 14.3731C6.6431 14.429 6.70656 14.4735 6.77698 14.5039C6.8474 14.5343 6.9233 14.55 7.00001 14.55C7.07672 14.55 7.15262 14.5343 7.22304 14.5039C7.29346 14.4735 7.35692 14.429 7.40951 14.3731L11.0309 10.529L11.1464 10.3929Z" fill="#A0A4A8"/>
</svg>
