<svg width="18" height="17" viewBox="0 0 18 17" fill="none" xmlns="http://www.w3.org/2000/svg">
<g clip-path="url(#clip0)">
<path d="M15.1875 9.48329V9.08999V8.69152L16.2675 7.82212C16.4665 7.66068 16.5972 7.4397 16.6363 7.19822C16.6754 6.95674 16.6205 6.71031 16.4812 6.50249L15.1537 4.43249C15.0551 4.27531 14.9132 4.14475 14.7424 4.05392C14.5716 3.96309 14.3779 3.91518 14.1806 3.91499C14.0583 3.91413 13.9367 3.93161 13.8206 3.96674L12.4537 4.39109C12.2177 4.24682 11.9715 4.11716 11.7168 4.00297L11.43 2.69887C11.3785 2.46061 11.2376 2.24659 11.032 2.09427C10.8263 1.94195 10.5689 1.86104 10.305 1.86569H7.67246C7.40848 1.86104 7.15112 1.94195 6.94545 2.09427C6.73978 2.24659 6.5989 2.46061 6.54746 2.69887L6.26058 4.00297C6.00405 4.11713 5.756 4.24679 5.51808 4.39109L4.17933 3.94604C4.06194 3.9179 3.94037 3.90742 3.81933 3.91499C3.62205 3.91518 3.42829 3.96309 3.25749 4.05392C3.08669 4.14475 2.94485 4.27531 2.84621 4.43249L1.51871 6.50249C1.38741 6.71 1.33863 6.95306 1.3807 7.19002C1.42277 7.42699 1.55309 7.64313 1.74933 7.80142L2.81246 8.69669V9.48847L1.74933 10.3579C1.54755 10.5173 1.41367 10.7373 1.37145 10.9788C1.32923 11.2204 1.3814 11.4679 1.51871 11.6775L2.84621 13.7475C2.94485 13.9047 3.08669 14.0352 3.25749 14.1261C3.42829 14.2169 3.62205 14.2648 3.81933 14.265C3.94159 14.2659 4.06319 14.2484 4.17933 14.2132L5.54621 13.7889C5.7822 13.9332 6.02837 14.0628 6.28308 14.177L6.56996 15.4811C6.6214 15.7194 6.76228 15.9334 6.96795 16.0857C7.17362 16.238 7.43098 16.3189 7.69496 16.3143H10.35C10.6139 16.3189 10.8713 16.238 11.077 16.0857C11.2826 15.9334 11.4235 15.7194 11.475 15.4811L11.7618 14.177C12.0184 14.0629 12.2664 13.9332 12.5043 13.7889L13.8656 14.2132C13.9817 14.2484 14.1033 14.2659 14.2256 14.265C14.4229 14.2648 14.6166 14.2169 14.7874 14.1261C14.9582 14.0352 15.1001 13.9047 15.1987 13.7475L16.4812 11.6775C16.6125 11.47 16.6613 11.2269 16.6192 10.99C16.5771 10.753 16.4468 10.5369 16.2506 10.3786L15.1875 9.48329ZM14.1806 13.23L12.2512 12.6297C11.7996 12.9816 11.2834 13.2568 10.7268 13.4422L10.3275 15.3H7.67246L7.27308 13.4629C6.72095 13.2722 6.20755 12.9976 5.75433 12.6504L3.81933 13.23L2.49183 11.16L4.02183 9.91799C3.91783 9.38231 3.91783 8.8339 4.02183 8.29822L2.49183 7.01999L3.81933 4.94999L5.74871 5.55029C6.20036 5.19834 6.71655 4.92321 7.27308 4.73782L7.67246 2.87999H10.3275L10.7268 4.71712C11.279 4.90778 11.7924 5.18242 12.2456 5.52959L14.1806 4.94999L15.5081 7.01999L13.9781 8.26199C14.0821 8.79768 14.0821 9.34608 13.9781 9.88177L15.5081 11.16L14.1806 13.23Z" fill="black"/>
<path d="M9 12.195C8.33249 12.195 7.67997 12.0129 7.12495 11.6717C6.56994 11.3305 6.13735 10.8456 5.88191 10.2782C5.62646 9.71086 5.55963 9.08655 5.68985 8.48424C5.82008 7.88193 6.14151 7.32867 6.61352 6.89443C7.08552 6.46019 7.68689 6.16446 8.34157 6.04466C8.99626 5.92485 9.67486 5.98634 10.2916 6.22135C10.9083 6.45636 11.4354 6.85433 11.8062 7.36495C12.1771 7.87556 12.375 8.47588 12.375 9.08999C12.3795 9.4989 12.2953 9.90453 12.1273 10.2831C11.9593 10.6617 11.7108 11.0057 11.3965 11.2948C11.0822 11.584 10.7084 11.8125 10.2969 11.9671C9.88537 12.1217 9.44447 12.1991 9 12.195ZM9 7.01999C8.70263 7.01362 8.40695 7.06281 8.13084 7.16458C7.85472 7.26635 7.60391 7.41859 7.39359 7.61209C7.18326 7.80559 7.01778 8.03634 6.90716 8.29036C6.79654 8.54439 6.74307 8.81642 6.75 9.08999C6.74307 9.36357 6.79654 9.6356 6.90716 9.88963C7.01778 10.1437 7.18326 10.3744 7.39359 10.5679C7.60391 10.7614 7.85472 10.9136 8.13084 11.0154C8.40695 11.1172 8.70263 11.1664 9 11.16C9.29737 11.1664 9.59305 11.1172 9.86917 11.0154C10.1453 10.9136 10.3961 10.7614 10.6064 10.5679C10.8167 10.3744 10.9822 10.1437 11.0928 9.88963C11.2035 9.6356 11.2569 9.36357 11.25 9.08999C11.2569 8.81642 11.2035 8.54439 11.0928 8.29036C10.9822 8.03634 10.8167 7.80559 10.6064 7.61209C10.3961 7.41859 10.1453 7.26635 9.86917 7.16458C9.59305 7.06281 9.29737 7.01362 9 7.01999Z" fill="black"/>
</g>
<defs>
<clipPath id="clip0">
<rect width="18" height="16.56" fill="white" transform="translate(0 0.119995)"/>
</clipPath>
</defs>
</svg>
