<svg width="18" height="18" viewBox="0 0 18 18" fill="none" xmlns="http://www.w3.org/2000/svg">
<path d="M3.375 3.375C3.375 2.77826 3.61205 2.20597 4.03401 1.78401C4.45597 1.36205 5.02826 1.125 5.625 1.125C6.22174 1.125 6.79403 1.36205 7.21599 1.78401C7.63795 2.20597 7.875 2.77826 7.875 3.375C7.875 3.97174 7.63795 4.54403 7.21599 4.96599C6.79403 5.38795 6.22174 5.625 5.625 5.625C5.02826 5.625 4.45597 5.38795 4.03401 4.96599C3.61205 4.54403 3.375 3.97174 3.375 3.375ZM5.625 2.25C5.32663 2.25 5.04048 2.36853 4.82951 2.5795C4.61853 2.79048 4.5 3.07663 4.5 3.375C4.5 3.67337 4.61853 3.95952 4.82951 4.1705C5.04048 4.38147 5.32663 4.5 5.625 4.5C5.92337 4.5 6.20952 4.38147 6.4205 4.1705C6.63147 3.95952 6.75 3.67337 6.75 3.375C6.75 3.07663 6.63147 2.79048 6.4205 2.5795C6.20952 2.36853 5.92337 2.25 5.625 2.25Z" fill="black"/>
<path d="M11.0014 5.15695C10.7657 4.97717 10.5678 4.75258 10.4192 4.4961C10.2706 4.23962 10.1741 3.9563 10.1353 3.66241C10.0965 3.36852 10.1162 3.06987 10.1932 2.78361C10.2702 2.49734 10.403 2.22912 10.5839 1.99434C10.7649 1.75956 10.9905 1.56286 11.2477 1.41553C11.505 1.2682 11.7888 1.17316 12.0829 1.13586C12.3769 1.09856 12.6755 1.11974 12.9614 1.19819C13.2472 1.27663 13.5148 1.41079 13.7486 1.59295C14.2091 1.96128 14.5066 2.49565 14.577 3.08107C14.6475 3.66649 14.4853 4.25618 14.1254 4.72326C13.7656 5.19034 13.2367 5.49747 12.6526 5.57858C12.0686 5.65969 11.4761 5.50829 11.0025 5.15695H11.0014ZM12.375 2.24995C12.0766 2.24995 11.7905 2.36848 11.5795 2.57946C11.3685 2.79043 11.25 3.07658 11.25 3.37495C11.25 3.67332 11.3685 3.95947 11.5795 4.17045C11.7905 4.38143 12.0766 4.49995 12.375 4.49995C12.6734 4.49995 12.9595 4.38143 13.1705 4.17045C13.3815 3.95947 13.5 3.67332 13.5 3.37495C13.5 3.07658 13.3815 2.79043 13.1705 2.57946C12.9595 2.36848 12.6734 2.24995 12.375 2.24995Z" fill="black"/>
<path d="M2.8125 6.75H5.81625C5.6925 7.10212 5.625 7.48125 5.625 7.875H2.8125C2.66332 7.875 2.52024 7.93426 2.41475 8.03975C2.30926 8.14524 2.25 8.28832 2.25 8.4375C2.25 9.35662 2.61563 10.0384 3.19275 10.5019C3.45825 10.7156 3.77663 10.8877 4.13663 11.0137C3.87226 11.2948 3.66854 11.6271 3.53813 11.9902C3.1605 11.8386 2.80693 11.6328 2.4885 11.3794C1.6425 10.6987 1.125 9.693 1.125 8.4375C1.125 7.98995 1.30279 7.56072 1.61926 7.24426C1.93572 6.92779 2.36495 6.75 2.8125 6.75Z" fill="black"/>
<path d="M7.05143 6.74995C6.75306 7.26703 6.67232 7.88145 6.82696 8.45805C6.98161 9.03465 7.35898 9.52621 7.87605 9.82458C8.39312 10.1229 9.00755 10.2037 9.58415 10.049C10.1608 9.89439 10.6523 9.51703 10.9507 8.99995C11.249 8.48288 11.3298 7.86846 11.1751 7.29186C11.0205 6.71525 10.6431 6.2237 10.1261 5.92533C9.60898 5.62696 8.99456 5.54622 8.41795 5.70087C7.84135 5.85551 7.3498 6.23288 7.05143 6.74995ZM8.74793 6.77808C8.91276 6.74084 9.08385 6.74111 9.24857 6.77885C9.41329 6.81659 9.56742 6.89084 9.6996 6.99613C9.83178 7.10142 9.93862 7.23505 10.0122 7.38716C10.0859 7.53927 10.1244 7.70597 10.1249 7.87495C10.1248 8.08663 10.065 8.29398 9.95239 8.47319C9.83974 8.6524 9.67882 8.79619 9.48812 8.88805C9.29741 8.9799 9.08467 9.01609 8.87432 8.99246C8.66397 8.96882 8.46455 8.88632 8.29899 8.75444C8.13342 8.62256 8.00842 8.44664 7.93835 8.2469C7.86828 8.04716 7.85599 7.8317 7.90287 7.62529C7.94976 7.41888 8.05393 7.22988 8.20342 7.08001C8.3529 6.93015 8.54163 6.82549 8.74793 6.77808Z" fill="black"/>
<path d="M14.8072 10.5019C14.5417 10.7156 14.2233 10.8877 13.8633 11.0137C14.1273 11.2949 14.3306 11.6272 14.4607 11.9902C14.8432 11.8339 15.1976 11.6302 15.5115 11.3794C16.3575 10.6987 16.875 9.693 16.875 8.4375C16.875 7.98995 16.6972 7.56072 16.3807 7.24426C16.0642 6.92779 15.635 6.75 15.1875 6.75H12.1837C12.3075 7.10212 12.375 7.48125 12.375 7.875H15.1875C15.3367 7.875 15.4797 7.93426 15.5852 8.03975C15.6907 8.14524 15.75 8.28832 15.75 8.4375C15.75 9.35662 15.3843 10.0384 14.8072 10.5019Z" fill="black"/>
<path d="M11.8125 11.2499C12.2601 11.2499 12.6893 11.4277 13.0057 11.7442C13.3222 12.0607 13.5 12.4899 13.5 12.9374C13.5 14.1929 12.9836 15.1987 12.1365 15.8793C11.3029 16.5487 10.1846 16.8749 9.00001 16.8749C7.81538 16.8749 6.69713 16.5487 5.86351 15.8793C5.01751 15.1987 4.50001 14.1929 4.50001 12.9374C4.49941 12.7157 4.54266 12.496 4.62725 12.291C4.71184 12.086 4.83612 11.8997 4.99294 11.7429C5.14976 11.5861 5.33602 11.4618 5.54103 11.3772C5.74603 11.2926 5.96573 11.2494 6.18751 11.2499H11.8125ZM11.8125 12.3749H6.18751C6.03832 12.3749 5.89525 12.4342 5.78976 12.5397C5.68427 12.6452 5.62501 12.7883 5.62501 12.9374C5.62501 13.8566 5.99063 14.5383 6.56776 15.0018C7.15951 15.4766 8.01001 15.7499 9.00001 15.7499C9.99001 15.7499 10.8405 15.4766 11.4323 15.0018C12.0094 14.5383 12.375 13.8566 12.375 12.9374C12.375 12.7883 12.3157 12.6452 12.2103 12.5397C12.1048 12.4342 11.9617 12.3749 11.8125 12.3749Z" fill="black"/>
</svg>
