<svg width="16" height="16" viewBox="0 0 16 16" fill="none" xmlns="http://www.w3.org/2000/svg">
<path d="M8.25 6.44999H9.75V4.37999H12V2.99999H9.75V0.929993H8.25V2.99999H6V4.37999H8.25V6.44999ZM5.25 12.66C4.425 12.66 3.7575 13.281 3.7575 14.04C3.7575 14.799 4.425 15.42 5.25 15.42C6.075 15.42 6.75 14.799 6.75 14.04C6.75 13.281 6.075 12.66 5.25 12.66ZM12.75 12.66C11.925 12.66 11.2575 13.281 11.2575 14.04C11.2575 14.799 11.925 15.42 12.75 15.42C13.575 15.42 14.25 14.799 14.25 14.04C14.25 13.281 13.575 12.66 12.75 12.66ZM5.3775 10.4175L5.4 10.3347L6.075 9.20999H11.6625C12.225 9.20999 12.72 8.92709 12.975 8.49929L15.87 3.66239L14.565 2.99999H14.5575L13.7325 4.37999L11.6625 7.82999H6.3975L6.3 7.64369L4.62 4.37999L3.9075 2.99999L3.2025 1.61999H0.75V2.99999H2.25L4.95 8.23709L3.9375 9.92759C3.8175 10.1208 3.75 10.3485 3.75 10.59C3.75 11.349 4.425 11.97 5.25 11.97H14.25V10.59H5.565C5.4675 10.59 5.3775 10.5141 5.3775 10.4175Z" fill="black"/>
</svg>
