<svg width="16" height="14" viewBox="0 0 16 14" fill="none" xmlns="http://www.w3.org/2000/svg">
<path d="M15.5 0.550003H0.5V4.69H1.25V12.28C1.25 12.646 1.40804 12.997 1.68934 13.2558C1.97064 13.5146 2.35218 13.66 2.75 13.66H13.25C13.6478 13.66 14.0294 13.5146 14.3107 13.2558C14.592 12.997 14.75 12.646 14.75 12.28V4.69H15.5V0.550003ZM2 1.93H14V3.31H2V1.93ZM13.25 12.28H2.75V4.69H13.25V12.28ZM5.75 6.07H10.25C10.25 6.436 10.092 6.78701 9.81066 7.04581C9.52936 7.30461 9.14782 7.45 8.75 7.45H7.25C6.85218 7.45 6.47064 7.30461 6.18934 7.04581C5.90804 6.78701 5.75 6.436 5.75 6.07Z" fill="black"/>
</svg>
